<svg width="32" height="32" viewBox="0 0 32 32" fill="none" xmlns="http://www.w3.org/2000/svg">
<circle cx="16" cy="16" r="16" fill="#131315"/>
<path d="M16.0946 5C13.1131 5 10.2741 6.29595 8.27856 8.56082C10.2029 6.78041 12.7092 5.79937 15.3106 5.79937C18.4584 5.79937 21.3804 7.61611 23.3047 9.84465L24.2788 8.68194C22.3782 6.52607 19.1829 5 16.0946 5Z" fill="#00FF00"/>
<path d="M16.2965 27.9999C19.278 27.9999 22.1169 26.704 24.1125 24.4391C22.1882 26.2195 19.6819 27.2006 17.0805 27.2006C13.9327 27.2006 11.0106 25.3838 9.08633 23.1553L8.1123 24.318C10.0128 26.4739 13.2081 27.9999 16.2965 27.9999Z" fill="#ED2939"/>
<path d="M11.7946 23.4702L15.5006 20.2727L16.8785 22.7556H21.915L18.6246 16.8936L26.8564 5.64185L17.3536 16.8936L19.9788 21.5808H17.5793L15.9045 18.6134L11.7946 23.4702Z" fill="#ED2939"/>
<path d="M20.0499 10.1716L16.6408 13.3691L15.2511 10.8862H10.2146L13.3862 16.5181L5 28L14.7165 16.4939L12.1983 12.0489H14.6096L16.1538 14.7862L20.0499 10.1716Z" fill="#00FF00"/>
<path d="M22.9129 22.4165L19.7651 16.833L26.8565 5.64185L20.169 16.833L23.1267 21.6292L22.9129 22.4165Z" fill="#ED2939"/>
<path d="M9.09805 11.3948L12.0795 16.8087L5 27.9998L11.6875 16.8087L8.81297 12.2063L9.09805 11.3948Z" fill="#00FF00"/>
</svg>
