<svg width="111" height="44" viewBox="0 0 111 44" fill="none" xmlns="http://www.w3.org/2000/svg">
<path d="M32.908 0C27.1878 0 21.741 2.47919 17.9124 6.81198C21.6043 3.40599 26.4129 1.52922 31.4038 1.52922C37.4431 1.52922 43.0493 5.00472 46.7413 9.26801L48.61 7.04368C44.9637 2.91942 38.8333 0 32.908 0Z" fill="white"/>
<path d="M33.2954 43.9999C39.0156 43.9999 44.4623 41.5207 48.291 37.188C44.5991 40.5939 39.7905 42.4707 34.7995 42.4707C28.7603 42.4707 23.154 38.9952 19.4621 34.7319L17.5934 36.9563C21.2397 41.0805 27.3701 43.9999 33.2954 43.9999Z" fill="white"/>
<path d="M24.6583 35.3343L31.7687 29.2174L34.4123 33.9673H44.0751L37.7624 22.753L53.5556 1.22803L35.3239 22.753L40.3604 31.7198H35.7569L32.5435 26.0431L24.6583 35.3343Z" fill="white"/>
<path d="M40.4966 9.89355L33.9559 16.0104L31.2896 11.2606H21.6268L27.7116 22.0346L11.6221 43.9998L30.264 21.9883L25.4326 13.4849H30.0589L33.0216 18.7213L40.4966 9.89355Z" fill="white"/>
<path d="M45.9897 33.3185L39.9504 22.6371L53.5558 1.22803L40.7253 22.6371L46.3999 31.8124L45.9897 33.3185Z" fill="white"/>
<path d="M19.4845 12.2336L25.2047 22.5906L11.6221 43.9997L24.4527 22.5906L18.9376 13.786L19.4845 12.2336Z" fill="white"/>
<path d="M3.3045 15.4082H0V29.7736H3.3045V23.6336H13.6738V29.7736H16.9783V15.4082H13.6738V20.969H3.3045V15.4082Z" fill="white"/>
<path d="M60.8478 15.4082H48.1995V29.8895H51.504V17.9569H59.3664C60.1869 17.9569 60.392 18.652 60.392 18.9996V20.8532C60.392 21.6641 59.7083 21.8958 59.3664 21.8958H51.9598L60.392 29.8895H65.1778L58.5688 24.3287H60.8478C63.0356 24.3287 63.5825 22.784 63.5825 22.0117V18.0728C63.5825 15.7558 61.7594 15.4082 60.8478 15.4082Z" fill="white"/>
<path fill-rule="evenodd" clip-rule="evenodd" d="M71.6736 15.4082C70.0784 15.4082 68.2552 15.6399 68.2552 18.3045V26.6457C68.2552 28.1517 68.3919 29.8895 71.6736 29.8895H82.3848C83.5243 29.8895 85.8033 29.8895 85.8033 26.6457L85.8032 18.5361V18.5361C85.8032 17.3776 85.8032 15.4082 82.3848 15.4082H71.6736ZM71.6735 18.0729H82.3846V27.1092H71.6735V18.0729Z" fill="white"/>
<path d="M99.937 31.5334H94.4414V37.7365H95.8771V32.6252H99.2933C99.6498 32.6252 99.7389 32.9229 99.7389 33.0718V33.8658C99.7389 34.2132 99.4419 34.3124 99.2933 34.3124H96.0752L99.7389 37.7365H101.818L98.9468 35.3545H99.937C100.888 35.3545 101.125 34.6929 101.125 34.362V32.6748C101.125 31.6823 100.333 31.5334 99.937 31.5334Z" fill="white"/>
<path d="M48.1394 37.7668H49.4614V34.3964C49.4614 34.2152 49.4491 33.8891 49.4002 33.4059C49.5716 33.5991 49.7429 33.7562 49.9265 33.9132L54.5658 37.7668H55.5696V31.5334H54.2475V34.8072C54.2475 35.0004 54.272 35.3628 54.3088 35.8823C54.0884 35.6286 53.8436 35.4112 53.5865 35.2058L49.1431 31.5334H48.1394V37.7668Z" fill="white"/>
<path d="M57.0905 37.7668H63.6149V36.595H58.5594V35.0488H61.4727V33.9857H58.5594V32.5965H63.5537V31.5334H57.0905V37.7668Z" fill="white"/>
<path d="M69.2687 32.6448H72.182V31.5334H64.8987V32.6448H67.7998V37.7668H69.2687V32.6448Z" fill="white"/>
<path d="M75.6464 37.7668H76.6624L78.4251 33.4542L80.1633 37.7668H81.1548L83.5907 31.5334H82.2809L80.7508 35.7132L79.0371 31.5334H78.0089L76.3319 35.7132L74.7283 31.5334H73.2105L75.6464 37.7668Z" fill="white"/>
<path d="M86.1654 36.595V32.6448H91.0128V36.595H86.1654ZM84.6965 33.0072V36.293C84.6965 37.4648 85.076 37.7668 86.2633 37.7668H90.9148C92.1022 37.7668 92.4817 37.4648 92.4817 36.293V33.0072C92.4817 31.8355 92.1022 31.5334 90.9148 31.5334H86.2633C85.076 31.5334 84.6965 31.8355 84.6965 33.0072Z" fill="white"/>
<path d="M103.352 37.7668H104.833V35.0246L108.615 37.7668H110.978L106.277 34.4689L110.464 31.5334H108.334L104.833 34.1307V31.5334H103.352V37.7668Z" fill="white"/>
</svg>
