<svg width="28" height="28" viewBox="0 0 28 28" fill="none" xmlns="http://www.w3.org/2000/svg">
<circle cx="14" cy="14" r="14" fill="#323234"/>
<path d="M12.5514 13.6064C12.0954 13.6064 11.7354 14.0002 11.7354 14.4806C11.7354 14.9609 12.1034 15.3547 12.5514 15.3547C13.0074 15.3547 13.3674 14.9609 13.3674 14.4806C13.3754 14.0002 13.0074 13.6064 12.5514 13.6064ZM15.4714 13.6064C15.0154 13.6064 14.6554 14.0002 14.6554 14.4806C14.6554 14.9609 15.0234 15.3547 15.4714 15.3547C15.9274 15.3547 16.2874 14.9609 16.2874 14.4806C16.2874 14.0002 15.9274 13.6064 15.4714 13.6064Z" fill="#F1F1F1"/>
<path d="M19.36 7H8.64C7.736 7 7 7.7245 7 8.62225V19.2692C7 20.167 7.736 20.8915 8.64 20.8915H17.712L17.288 19.4346L18.312 20.3717L19.28 21.2537L21 22.75V8.62225C21 7.7245 20.264 7 19.36 7ZM16.272 17.2847C16.272 17.2847 15.984 16.9461 15.744 16.6469C16.792 16.3555 17.192 15.7098 17.192 15.7098C16.864 15.9224 16.552 16.072 16.272 16.1744C15.872 16.3398 15.488 16.45 15.112 16.513C14.344 16.6547 13.64 16.6154 13.04 16.5051C12.584 16.4185 12.192 16.2925 11.864 16.1665C11.68 16.0956 11.48 16.009 11.28 15.8988C11.256 15.883 11.232 15.8751 11.208 15.8594C11.192 15.8515 11.184 15.8436 11.176 15.8357C11.032 15.757 10.952 15.7019 10.952 15.7019C10.952 15.7019 11.336 16.3319 12.352 16.6311C12.112 16.9304 11.816 17.2847 11.816 17.2847C10.048 17.2296 9.376 16.0877 9.376 16.0877C9.376 13.552 10.528 11.4966 10.528 11.4966C11.68 10.6461 12.776 10.6697 12.776 10.6697L12.856 10.7643C11.416 11.1738 10.752 11.7959 10.752 11.7959C10.752 11.7959 10.928 11.7014 11.224 11.5675C12.08 11.1974 12.76 11.095 13.04 11.0714C13.088 11.0635 13.128 11.0556 13.176 11.0556C13.664 10.9926 14.216 10.9769 14.792 11.0399C15.552 11.1265 16.368 11.347 17.2 11.7959C17.2 11.7959 16.568 11.2052 15.208 10.7957L15.32 10.6697C15.32 10.6697 16.416 10.6461 17.568 11.4966C17.568 11.4966 18.72 13.552 18.72 16.0877C18.72 16.0877 18.04 17.2296 16.272 17.2847Z" fill="#F1F1F1"/>
</svg>
