<svg width="28" height="28" viewBox="0 0 28 28" fill="none" xmlns="http://www.w3.org/2000/svg">
<circle cx="14" cy="14" r="14" fill="#323234"/>
<path d="M22.75 8.72646C22.1061 9.01956 21.4142 9.21696 20.6879 9.30594C21.4295 8.85058 21.999 8.12904 22.2666 7.26918C21.5731 7.69088 20.8046 7.99744 19.9865 8.16269C19.3324 7.44713 18.3983 7 17.3658 7C15.0478 7 13.3445 9.21771 13.868 11.5199C10.885 11.3666 8.23958 9.90111 6.46844 7.67369C5.52781 9.32837 5.98063 11.493 7.57896 12.5891C6.99125 12.5697 6.43708 12.4044 5.95365 12.1285C5.91427 13.8341 7.10646 15.4297 8.83313 15.7848C8.32781 15.9254 7.77438 15.9583 7.21146 15.8477C7.66792 17.3102 8.99354 18.3742 10.5656 18.4041C9.05625 19.6176 7.15458 20.1597 5.25 19.9294C6.83885 20.9739 8.72667 21.5833 10.7537 21.5833C17.4198 21.5833 21.1859 15.8103 20.9584 10.6324C21.6599 10.1127 22.2688 9.46445 22.75 8.72646Z" fill="#F1F1F1"/>
</svg>
